<svg xmlns="http://www.w3.org/2000/svg" width="10" height="10" viewBox="0 0 10 10">
  <path fill="#676767" fill-rule="evenodd" d="M10,4.31818182 L10,5.68181818 C10,6.05823864 9.69460227,6.36363636 9.31818182,6.36363636 L6.36363636,6.36363636 L6.36363636,9.31818182 C6.36363636,9.69460227 6.05823864,10 5.68181818,10 L4.31818182,10 C3.94176136,10 3.63636364,9.69460227 3.63636364,9.31818182 L3.63636364,6.36363636 L0.681818182,6.36363636 C0.305397727,6.36363636 0,6.05823864 0,5.68181818 L0,4.31818182 C0,3.94176136 0.305397727,3.63636364 0.681818182,3.63636364 L3.63636364,3.63636364 L3.63636364,0.681818182 C3.63636364,0.305397727 3.94176136,0 4.31818182,0 L5.68181818,0 C6.05823864,0 6.36363636,0.305397727 6.36363636,0.681818182 L6.36363636,3.63636364 L9.31818182,3.63636364 C9.69460227,3.63636364 10,3.94176136 10,4.31818182 Z"/>
</svg>
